<?xml version="1.0" encoding="UTF-8"?> <svg xmlns="http://www.w3.org/2000/svg" width="3962" height="4010" viewBox="0 0 3962 4010" fill="none"> <path d="M1981 1C1981 540.03 1544.03 977 1005 977C465.97 977 29 540.03 29 1" stroke="#796252" stroke-width="12"></path> <path d="M3933 1C3933 540.03 3496.03 977 2957 977C2417.97 977 1981 540.03 1981 1" stroke="#796252" stroke-width="12"></path> <path d="M29 1981C568.03 1981 1005 1544.03 1005 1005C1005 465.97 568.03 29 29 29" stroke="#796252" stroke-width="12"></path> <path d="M3933 1981C3393.97 1981 2957 1544.03 2957 1005C2957 465.97 3393.97 29 3933 29" stroke="#796252" stroke-width="12"></path> <path d="M1981 2001C1981 1461.97 1544.03 1025 1005 1025C465.97 1025 29 1461.97 29 2001" stroke="#796252" stroke-width="12"></path> <path d="M3933 2001C3933 1461.97 3496.03 1025 2957 1025C2417.97 1025 1981 1461.97 1981 2001" stroke="#796252" stroke-width="12"></path> <circle cx="1981" cy="1005" r="976" stroke="#796252" stroke-width="12"></circle> <path d="M1981 2001C1981 2540.03 1544.03 2977 1005 2977C465.97 2977 29 2540.03 29 2001" stroke="#796252" stroke-width="12"></path> <path d="M3933 2001C3933 2540.03 3496.03 2977 2957 2977C2417.97 2977 1981 2540.03 1981 2001" stroke="#796252" stroke-width="12"></path> <path d="M29 3981C568.03 3981 1005 3544.03 1005 3005C1005 2465.97 568.03 2029 29 2029" stroke="#796252" stroke-width="12"></path> <path d="M3933 3981C3393.97 3981 2957 3544.03 2957 3005C2957 2465.97 3393.97 2029 3933 2029" stroke="#796252" stroke-width="12"></path> <path d="M1981 4001C1981 3461.97 1544.03 3025 1005 3025C465.97 3025 29 3461.97 29 4001" stroke="#796252" stroke-width="12"></path> <path d="M3933 4001C3933 3461.97 3496.03 3025 2957 3025C2417.97 3025 1981 3461.97 1981 4001" stroke="#796252" stroke-width="12"></path> <circle cx="1981" cy="3005" r="976" stroke="#796252" stroke-width="12"></circle> </svg> 